<?xml version="1.0" standalone="no"?><svg xmlns="http://www.w3.org/2000/svg" viewBox="0 0 1440 320"><path fill="#082C7F" fill-opacity="1" d="M0,160L30,133.3C60,107,120,53,180,32C240,11,300,21,360,26.7C420,32,480,32,540,37.3C600,43,660,53,720,69.3C780,85,840,107,900,112C960,117,1020,107,1080,101.3C1140,96,1200,96,1260,90.7C1320,85,1380,75,1410,69.3L1440,64L1440,320L1410,320C1380,320,1320,320,1260,320C1200,320,1140,320,1080,320C1020,320,960,320,900,320C840,320,780,320,720,320C660,320,600,320,540,320C480,320,420,320,360,320C300,320,240,320,180,320C120,320,60,320,30,320L0,320Z"></path></svg>